# Blender v2.92.0 OBJ File: 'tree_trunk.blend'
# www.blender.org
mtllib tree_trunk.mtl
o Cube_Cube.004
v -1.143480 -0.903046 0.886611
v -0.851404 0.902884 0.869538
v -1.771064 -0.980956 -1.389276
v -0.814048 1.000000 -0.824987
v 2.351469 -0.991997 1.426580
v 0.832361 0.914665 0.886113
v 1.522176 -1.035718 -1.693698
v 0.916507 1.115214 -0.732212
v -0.087673 -1.000000 -2.094499
v -0.091392 0.787663 -1.264991
v 0.653018 -0.949766 2.544954
v -0.077876 0.818065 1.182338
v 0.422520 1.000000 -1.027346
v 0.991928 -0.915100 1.313622
v 0.598597 -1.000000 -1.350178
v 0.500000 1.000000 1.000000
v -1.109383 -1.000000 -0.043753
v -1.123149 0.836892 0.071828
v 2.149796 -1.201381 0.089670
v 1.175878 0.835883 0.126255
v 0.000000 -1.000000 0.000000
v 0.431657 -1.193272 -0.062764
v -0.696890 -1.000000 -1.322681
v -0.596977 0.864306 1.120505
v -0.500000 1.000000 -1.000000
v -1.315964 -1.184438 1.524070
v -0.500000 -1.000000 0.000000
v -2.201540 -1.054823 0.299772
v 0.879151 0.870709 0.485429
v 0.000208 -1.306707 0.499777
v 0.500000 -1.000000 0.500000
v -1.084988 0.914993 0.534576
v 1.393885 -1.000000 0.290660
v -0.500000 -1.000000 0.500000
v -0.754887 1.045663 -0.279680
v 1.532905 -0.790373 -0.946230
v -1.021877 -1.000000 -0.576568
v 1.137864 0.858330 -0.515464
v 0.000000 -1.000000 -0.500000
v 0.500000 -1.000000 -0.500000
v -0.524701 -1.170861 -0.505260
v -0.915156 2.472346 0.817528
v -0.944942 2.522540 -0.886090
v 0.582536 2.778149 0.736538
v 1.079634 2.714535 -1.216958
v -0.270118 2.725856 -0.930303
v -0.240493 2.701869 0.860698
v 0.422520 2.577535 -1.027346
v 0.577548 2.278347 1.260596
v -1.421467 2.237916 0.105443
v 1.214849 2.509909 0.064440
v -0.977625 4.873850 0.010256
v 0.191955 4.840255 0.918692
v -0.565630 2.577535 0.961716
v -0.436092 2.463417 -1.241017
v 0.490503 5.078793 -1.072908
v 0.983230 2.348018 0.507495
v -0.172531 4.777537 0.944488
v 0.108665 5.041090 -1.117769
v -1.000000 2.577535 0.500000
v 0.875529 4.991714 -0.859351
v -1.000438 2.443826 -0.372505
v 0.828156 2.631726 -0.556718
v 0.576315 4.792418 0.817611
v -0.722128 4.646329 -0.838867
v -0.921166 4.877097 0.800366
v -0.934621 3.886995 0.908911
v -0.814048 3.980556 -0.824987
v 0.742949 3.980556 0.835925
v 1.000000 3.980556 -1.000000
v 0.038284 3.980556 -0.923432
v 0.044688 3.960611 0.867162
v 0.630288 3.814351 -1.104434
v 0.500000 3.980556 1.000000
v -1.066333 3.875479 0.151736
v 1.000000 3.980556 0.000000
v -0.623913 3.903535 1.132638
v -0.441497 3.778194 -1.408723
v 0.745684 3.980556 0.431332
v -1.000000 3.980556 0.500000
v -0.837626 3.922029 -0.465629
v 1.000000 3.980556 -0.500000
v 1.073808 4.928216 0.090181
v 0.000000 5.376160 0.000000
v 0.500000 5.376160 0.000000
v -0.690493 4.828911 0.921771
v -0.417562 4.819390 -1.100114
v -0.500000 5.376160 0.000000
v 0.855994 4.871145 0.558069
v 0.000000 5.376160 0.500000
v 0.500000 5.376160 0.500000
v -1.051311 4.874722 0.518445
v -0.500000 5.376160 0.500000
v -0.908735 4.785285 -0.461724
v 1.217643 4.994818 -0.299090
v 0.000000 5.376160 -0.500000
v 0.500000 5.376160 -0.500000
v -0.500000 5.376160 -0.500000
v -0.974925 -0.048558 0.896485
v -1.248847 0.000000 -1.202359
v 0.887078 0.057607 -0.861168
v 0.901216 -0.042667 0.874768
v -0.204483 -0.131556 1.334582
v -0.010146 -0.106169 -1.362200
v 0.677330 -0.040424 1.330635
v 0.510559 0.000000 -1.188762
v 1.190334 -0.082059 0.030844
v -1.183661 -0.239355 -0.074815
v -0.598445 0.000000 -1.161340
v -0.540285 -0.067847 1.413013
v -1.510108 -0.042503 0.459862
v 1.034451 -0.064645 0.405056
v 1.406724 -0.075551 -0.725771
v -0.766948 0.255288 -0.367073
vt 0.500000 0.187500
vt 0.625000 0.187500
vt 0.625000 0.250000
vt 0.500000 0.250000
vt 0.500000 0.437500
vt 0.625000 0.437500
vt 0.625000 0.500000
vt 0.500000 0.500000
vt 0.500000 0.687500
vt 0.625000 0.687500
vt 0.625000 0.750000
vt 0.500000 0.750000
vt 0.500000 0.937500
vt 0.625000 0.937500
vt 0.625000 1.000000
vt 0.500000 1.000000
vt 0.312500 0.687500
vt 0.375000 0.687500
vt 0.375000 0.750000
vt 0.312500 0.750000
vt 0.625000 0.062500
vt 0.625000 0.000000
vt 0.625000 0.000000
vt 0.625000 0.062500
vt 0.625000 0.187500
vt 0.625000 0.250000
vt 0.187500 0.687500
vt 0.250000 0.687500
vt 0.250000 0.750000
vt 0.187500 0.750000
vt 0.500000 0.812500
vt 0.625000 0.812500
vt 0.625000 0.875000
vt 0.500000 0.875000
vt 0.500000 0.312500
vt 0.625000 0.312500
vt 0.625000 0.375000
vt 0.500000 0.375000
vt 0.625000 0.125000
vt 0.625000 0.125000
vt 0.250000 0.562500
vt 0.312500 0.562500
vt 0.312500 0.625000
vt 0.250000 0.625000
vt 0.625000 0.312500
vt 0.187500 0.562500
vt 0.187500 0.625000
vt 0.625000 0.625000
vt 0.625000 0.562500
vt 0.625000 0.562500
vt 0.625000 0.625000
vt 0.625000 0.750000
vt 0.625000 0.812500
vt 0.375000 0.562500
vt 0.375000 0.625000
vt 0.500000 0.562500
vt 0.500000 0.625000
vt 0.500000 0.062500
vt 0.500000 0.125000
vt 0.625000 0.875000
vt 0.625000 0.937500
vt 0.125000 0.562500
vt 0.125000 0.625000
vt 0.125000 0.687500
vt 0.125000 0.750000
vt 0.625000 0.687500
vt 0.500000 0.000000
vt 0.625000 0.375000
vt 0.125000 0.500000
vt 0.187500 0.500000
vt 0.625000 0.437500
vt 0.312500 0.500000
vt 0.375000 0.500000
vt 0.625000 0.500000
vt 0.250000 0.500000
vt 0.625000 1.000000
vt 0.625000 0.375000
vt 0.625000 0.437500
vt 0.625000 0.812500
vt 0.625000 0.875000
vt 0.625000 0.312500
vt 0.625000 0.562500
vt 0.625000 0.625000
vt 0.625000 0.250000
vt 0.625000 0.937500
vt 0.625000 1.000000
vt 0.625000 0.000000
vt 0.625000 0.062500
vt 0.625000 0.125000
vt 0.625000 0.500000
vt 0.625000 0.687500
vt 0.625000 0.750000
vt 0.625000 0.187500
vt 0.625000 0.312500
vt 0.625000 0.375000
vt 0.625000 0.562500
vt 0.625000 0.625000
vt 0.625000 0.250000
vt 0.625000 0.937500
vt 0.625000 1.000000
vt 0.625000 0.000000
vt 0.625000 0.062500
vt 0.625000 0.125000
vt 0.625000 0.500000
vt 0.625000 0.875000
vt 0.625000 0.687500
vt 0.625000 0.750000
vt 0.625000 0.187500
vt 0.625000 0.437500
vt 0.625000 0.812500
vt 0.812500 0.687500
vt 0.875000 0.687500
vt 0.875000 0.750000
vt 0.812500 0.750000
vt 0.687500 0.687500
vt 0.750000 0.687500
vt 0.750000 0.750000
vt 0.687500 0.750000
vt 0.687500 0.562500
vt 0.687500 0.625000
vt 0.750000 0.562500
vt 0.750000 0.625000
vt 0.812500 0.562500
vt 0.875000 0.562500
vt 0.875000 0.625000
vt 0.812500 0.625000
vt 0.750000 0.500000
vt 0.812500 0.500000
vt 0.875000 0.500000
vt 0.687500 0.500000
vt 0.375000 0.125000
vt 0.375000 0.187500
vt 0.375000 0.000000
vt 0.375000 0.062500
vt 0.375000 0.875000
vt 0.375000 0.937500
vt 0.375000 0.250000
vt 0.375000 0.312500
vt 0.375000 0.375000
vt 0.375000 0.437500
vt 0.375000 0.812500
vt 0.375000 1.000000
vn -0.9315 0.1460 0.3332
vn 0.5594 0.1314 -0.8184
vn 0.9753 0.1061 0.1937
vn -0.7316 0.1391 0.6674
vn -0.0310 -0.9970 0.0706
vn -0.8973 0.0177 0.4411
vn -0.9918 -0.1279 -0.0006
vn -0.0511 -0.9973 0.0533
vn 0.0792 0.2370 0.9683
vn -0.3859 0.1282 -0.9136
vn 0.7166 0.1953 0.6696
vn -0.6788 -0.1471 -0.7195
vn 0.3708 -0.9287 -0.0049
vn 0.3228 0.1563 -0.9335
vn -0.2122 -0.9539 -0.2122
vn -0.5438 -0.0965 -0.8336
vn 0.1615 -0.9736 0.1615
vn 0.9480 0.0651 -0.3114
vn 0.8751 0.0309 0.4829
vn 0.0261 -0.9214 -0.3877
vn 0.9833 0.1293 0.1281
vn -0.9085 0.2531 -0.3324
vn 0.0336 0.1335 0.9905
vn -0.1661 -0.9746 0.1504
vn -0.1317 0.2904 -0.9478
vn -0.1477 -0.9890 0.0021
vn 0.8337 0.0573 0.5493
vn 0.0482 0.2280 0.9725
vn -0.1514 0.0150 0.9884
vn 0.0269 -0.9992 -0.0301
vn -0.6944 0.1822 0.6962
vn 0.1127 -0.9872 -0.1127
vn -0.8672 -0.0602 0.4943
vn -0.2814 -0.9174 -0.2814
vn 0.0767 0.0300 -0.9966
vn 0.8370 -0.0311 0.5463
vn 0.0074 -0.8857 0.4643
vn 0.8515 0.0283 0.5235
vn -0.1155 -0.9920 -0.0503
vn 0.1100 0.0997 -0.9889
vn 0.5056 0.2036 -0.8384
vn 0.1506 -0.9759 0.1581
vn 0.1240 -0.1559 -0.9800
vn 0.9972 0.0518 0.0543
vn 0.0951 -0.9922 -0.0805
vn -0.5506 0.0481 0.8334
vn 0.0000 -1.0000 0.0000
vn -0.6901 0.1164 -0.7143
vn -0.2079 0.0155 -0.9780
vn -0.3554 0.1046 0.9288
vn 0.8060 -0.1312 -0.5772
vn 0.9457 0.0135 -0.3247
vn -0.7281 0.0066 -0.6855
vn -0.4707 -0.0973 0.8769
vn -0.9799 -0.0132 0.1990
vn -0.8568 0.0923 0.5073
vn 0.9766 -0.0562 0.2077
vn 0.3597 -0.0953 0.9282
vn 0.8491 0.0188 0.5279
vn -0.8655 0.1366 -0.4819
vn -0.1003 0.0606 -0.9931
vn 0.9427 -0.0084 0.3336
vn -0.9924 0.0985 -0.0744
vn 0.8528 0.1470 0.5011
vn 0.4105 0.0311 -0.9113
vn 0.9753 -0.1664 0.1453
vn -0.7677 0.1593 -0.6207
vn -0.5281 0.1254 0.8399
vn -0.9624 -0.0064 0.2715
vn -0.9998 0.0190 -0.0109
vn 0.9516 0.0080 -0.3071
vn 0.1988 0.1070 0.9742
vn 0.9200 0.0055 0.3919
vn -0.9647 -0.0103 -0.2631
vn 0.3757 0.1132 -0.9198
vn 0.3946 0.1659 0.9037
vn -0.9612 0.0113 -0.2755
vn 0.8801 -0.1416 0.4531
vn -0.1476 -0.0735 -0.9863
vn -0.1257 -0.0370 0.9914
vn -0.4805 0.7129 0.5108
vn -0.0207 0.6109 0.7914
vn 0.4020 0.4776 0.7812
vn 0.5110 0.8471 0.1461
vn 0.0000 1.0000 0.0000
vn -0.7743 0.6229 -0.1116
vn 0.0125 0.6005 0.7995
vn 0.6865 0.7003 0.1958
vn -0.6981 0.7141 -0.0516
vn -0.1789 0.7802 -0.5994
vn -0.7149 0.4615 -0.5254
vn -0.0138 0.8826 -0.4699
vn 0.4762 0.8021 -0.3604
vn -0.8775 0.1197 -0.4645
vn 0.6754 0.5623 -0.4772
vn 0.5588 0.3382 0.7572
vn -0.5434 0.1756 0.8209
vn -0.3566 0.5166 0.7784
vn 0.0632 0.1536 -0.9861
vn -0.4949 0.2332 -0.8371
vn 0.8555 0.5127 -0.0717
vn 0.5443 0.3605 -0.7575
vn 0.2100 0.4567 0.8645
vn -0.5575 0.3961 -0.7296
vn 0.4693 0.7023 0.5353
vn -0.8529 0.4242 0.3043
vn 0.7105 0.5950 -0.3759
vn -0.0182 0.4237 -0.9056
vn -0.8005 0.1767 0.5727
usemtl None
s off
f 114/1/1 35/2/1 4/3/1 100/4/1
f 106/5/2 13/6/2 8/7/2 101/8/2
f 112/9/3 29/10/3 6/11/3 102/12/3
f 110/13/4 24/14/4 2/15/4 99/16/4
f 31/17/5 33/18/5 5/19/5 14/20/5
f 32/21/6 2/22/6 42/23/6 60/24/6
f 4/3/7 35/2/7 62/25/7 43/26/7
f 34/27/8 30/28/8 11/29/8 26/30/8
f 105/31/9 16/32/9 12/33/9 103/34/9
f 109/35/10 25/36/10 10/37/10 104/38/10
f 102/12/11 6/11/11 16/32/11 105/31/11
f 35/2/12 18/39/12 50/40/12 62/25/12
f 30/28/13 31/17/13 14/20/13 11/29/13
f 104/38/14 10/37/14 13/6/14 106/5/14
f 39/41/15 40/42/15 22/43/15 21/44/15
f 25/36/16 4/3/16 43/26/16 55/45/16
f 41/46/17 39/41/17 21/44/17 27/47/17
f 20/48/18 38/49/18 63/50/18 51/51/18
f 16/32/19 6/11/19 44/52/19 49/53/19
f 40/42/20 36/54/20 19/55/20 22/43/20
f 113/56/21 38/49/21 20/48/21 107/57/21
f 111/58/22 32/21/22 18/39/22 108/59/22
f 24/14/23 12/33/23 47/60/23 54/61/23
f 37/62/24 41/46/24 27/47/24 17/63/24
f 100/4/25 4/3/25 25/36/25 109/35/25
f 28/64/26 34/27/26 26/30/26 1/65/26
f 6/11/27 29/10/27 57/66/27 44/52/27
f 103/34/28 12/33/28 24/14/28 110/13/28
f 12/33/29 16/32/29 49/53/29 47/60/29
f 17/63/30 27/47/30 34/27/30 28/64/30
f 99/67/31 2/22/31 32/21/31 111/58/31
f 21/44/32 22/43/32 31/17/32 30/28/32
f 18/39/33 32/21/33 60/24/33 50/40/33
f 27/47/34 21/44/34 30/28/34 34/27/34
f 10/37/35 25/36/35 55/45/35 46/68/35
f 29/10/36 20/48/36 51/51/36 57/66/36
f 22/43/37 19/55/37 33/18/37 31/17/37
f 107/57/38 20/48/38 29/10/38 112/9/38
f 3/69/39 23/70/39 41/46/39 37/62/39
f 13/6/40 10/37/40 46/68/40 48/71/40
f 101/8/41 8/7/41 38/49/41 113/56/41
f 15/72/42 7/73/42 36/54/42 40/42/42
f 8/7/43 13/6/43 48/71/43 45/74/43
f 38/49/44 8/7/44 45/74/44 63/50/44
f 23/70/45 9/75/45 39/41/45 41/46/45
f 2/15/46 24/14/46 54/61/46 42/76/46
f 9/75/47 15/72/47 40/42/47 39/41/47
f 108/59/48 18/39/48 35/2/48 114/1/48
f 48/71/49 46/68/49 71/77/49 73/78/49
f 47/60/50 49/53/50 74/79/50 72/80/50
f 46/68/51 55/45/51 78/81/51 71/77/51
f 51/51/52 63/50/52 82/82/52 76/83/52
f 55/45/53 43/26/53 68/84/53 78/81/53
f 42/76/54 54/61/54 77/85/54 67/86/54
f 60/24/55 42/23/55 67/87/55 80/88/55
f 50/40/56 60/24/56 80/88/56 75/89/56
f 63/50/57 45/74/57 70/90/57 82/82/57
f 54/61/58 47/60/58 72/80/58 77/85/58
f 44/52/59 57/66/59 79/91/59 69/92/59
f 62/25/60 50/40/60 75/89/60 81/93/60
f 45/74/61 48/71/61 73/78/61 70/90/61
f 49/53/62 44/52/62 69/92/62 74/79/62
f 43/26/63 62/25/63 81/93/63 68/84/63
f 57/66/64 51/51/64 76/83/64 79/91/64
f 71/77/65 78/81/65 87/94/65 59/95/65
f 76/83/66 82/82/66 95/96/66 83/97/66
f 78/81/67 68/84/67 65/98/67 87/94/67
f 67/86/68 77/85/68 86/99/68 66/100/68
f 80/88/69 67/87/69 66/101/69 92/102/69
f 75/89/70 80/88/70 92/102/70 52/103/70
f 82/82/71 70/90/71 61/104/71 95/96/71
f 77/85/72 72/80/72 58/105/72 86/99/72
f 69/92/73 79/91/73 89/106/73 64/107/73
f 81/93/74 75/89/74 52/103/74 94/108/74
f 70/90/75 73/78/75 56/109/75 61/104/75
f 74/79/76 69/92/76 64/107/76 53/110/76
f 68/84/77 81/93/77 94/108/77 65/98/77
f 79/91/78 76/83/78 83/97/78 89/106/78
f 73/78/79 71/77/79 59/95/79 56/109/79
f 72/80/80 74/79/80 53/110/80 58/105/80
f 93/111/81 92/112/81 66/113/81 86/114/81
f 91/115/82 90/116/82 58/117/82 53/118/82
f 89/106/83 91/115/83 53/118/83 64/107/83
f 95/96/84 97/119/84 85/120/84 83/97/84
f 97/119/85 96/121/85 84/122/85 85/120/85
f 98/123/86 94/124/86 52/125/86 88/126/86
f 96/121/85 98/123/85 88/126/85 84/122/85
f 90/116/87 93/111/87 86/114/87 58/117/87
f 84/122/85 88/126/85 93/111/85 90/116/85
f 83/97/88 85/120/88 91/115/88 89/106/88
f 85/120/85 84/122/85 90/116/85 91/115/85
f 88/126/89 52/125/89 92/112/89 93/111/89
f 59/127/90 87/128/90 98/123/90 96/121/90
f 87/128/91 65/129/91 94/124/91 98/123/91
f 56/130/92 59/127/92 96/121/92 97/119/92
f 61/104/93 56/130/93 97/119/93 95/96/93
f 17/131/94 108/59/94 114/1/94 37/132/94
f 7/73/95 101/8/95 113/56/95 36/54/95
f 19/55/96 107/57/96 112/9/96 33/18/96
f 1/133/97 99/67/97 111/58/97 28/134/97
f 11/135/98 103/34/98 110/13/98 26/136/98
f 3/137/99 100/4/99 109/35/99 23/138/99
f 28/134/100 111/58/100 108/59/100 17/131/100
f 36/54/101 113/56/101 107/57/101 19/55/101
f 9/139/102 104/38/102 106/5/102 15/140/102
f 5/19/103 102/12/103 105/31/103 14/141/103
f 23/138/104 109/35/104 104/38/104 9/139/104
f 14/141/105 105/31/105 103/34/105 11/135/105
f 26/136/106 110/13/106 99/16/106 1/142/106
f 33/18/107 112/9/107 102/12/107 5/19/107
f 15/140/108 106/5/108 101/8/108 7/73/108
f 37/132/109 114/1/109 100/4/109 3/137/109
