# Blender v2.92.0 OBJ File: 'tree_branch.blend'
# www.blender.org
mtllib tree_branch.mtl
o Cube
v -0.622394 -0.891005 0.754638
v -0.986878 0.678671 0.867437
v -1.071046 -0.994178 -1.207289
v -0.387723 0.894977 -0.938713
v 0.855614 -1.000000 0.763733
v 0.610766 0.753774 1.117454
v 1.006563 -1.000000 -0.993437
v 1.142630 0.529414 -1.052362
v -0.013126 -1.000000 -1.045941
v 0.014650 1.421431 -0.757207
v -0.026252 -1.000000 0.862177
v -0.060523 0.728410 1.117661
v 0.355484 0.835189 -1.316590
v 0.486874 -1.000000 0.809673
v 0.480311 -1.000000 -1.118134
v 0.430509 1.060231 0.687084
v -0.407524 -0.960646 -1.207358
v -0.612034 0.697161 0.988050
v -0.430416 0.560694 -1.197651
v -0.519689 -1.000000 0.881866
v -1.150949 -1.000000 -0.164075
v -1.198064 0.834229 -0.110052
v 1.118134 -1.000000 -0.006563
v 0.920627 1.008400 0.085771
v 0.000000 -1.000000 0.000000
v 0.549128 -1.078456 0.088339
v -0.500000 -1.000000 0.000000
v -0.960622 -1.000000 0.355614
v 1.113769 0.787453 0.702601
v 0.000000 -1.000000 0.500000
v 0.500000 -1.000000 0.500000
v -0.500000 -1.000000 0.500000
v -0.886770 1.014632 0.592195
v 1.000000 -1.000000 0.500000
v -1.070255 0.804373 -0.668689
v 1.091882 -1.000000 -0.552504
v -1.131260 -1.000000 -0.559067
v 1.104182 0.890452 -0.092010
v 0.000000 -1.000000 -0.500000
v 0.500000 -1.000000 -0.500000
v -0.500000 -1.000000 -0.500000
v -0.865101 2.031524 0.956821
v -0.956053 2.533373 -0.660157
v 0.809673 2.249031 0.770296
v 1.143560 1.782929 -1.214818
v 0.062275 2.091318 -1.197520
v 0.121994 2.314880 0.744939
v 0.461021 2.554358 -0.743159
v 0.479588 2.089356 1.080100
v -0.727771 1.509742 1.224909
v -0.545713 2.000338 -1.150756
v -1.059067 2.249031 -0.164075
v 1.172378 2.107788 0.197360
v 0.971093 2.197182 0.751832
v -0.619392 2.373634 0.438402
v -1.314398 1.857593 -0.422398
v 1.128150 2.185613 -0.679854
v -0.911920 3.517479 0.968530
v -1.034375 3.547744 -1.118482
v 0.809673 3.780404 0.770296
v 1.033069 3.551256 -1.054891
v -0.021508 3.492536 -1.281657
v -0.181176 3.721132 1.065111
v 0.384211 3.897326 -0.860851
v 0.421831 3.686843 0.990249
v -0.440933 3.780404 0.829362
v -0.564895 3.996087 -0.695420
v -0.699104 4.246692 0.020898
v 1.147442 3.655412 0.172148
v 0.828681 3.830186 0.520398
v -1.108355 3.572494 0.376904
v -1.220474 3.462083 -0.690075
v 0.886475 3.797668 -0.379798
v -0.789985 5.242118 0.750607
v -0.967185 5.242118 -0.927807
v 0.809673 5.242118 0.770296
v 0.947496 5.242118 -0.881866
v -0.059067 5.242118 -0.986874
v 0.013126 5.242118 0.894992
v 0.506563 5.242118 -1.032815
v 0.486874 5.242118 0.809673
v -0.440933 5.242118 0.829362
v -0.513126 5.242118 -0.927807
v -1.059067 5.242118 -0.164075
v 0.954059 5.242118 -0.013126
v 0.000000 5.242118 0.000000
v 0.500000 5.242118 0.000000
v -0.500000 5.242118 0.000000
v 0.927807 5.242118 0.473748
v 0.000000 5.242118 0.500000
v 0.500000 5.242118 0.500000
v -0.500000 5.242118 0.500000
v -0.829362 5.242118 0.388429
v -0.980311 5.242118 -0.519689
v 0.973748 5.242118 -0.467185
v 0.000000 5.242118 -0.500000
v 0.500000 5.242118 -0.500000
v -0.500000 5.242118 -0.500000
vt 0.375000 0.187500
vt 0.625000 0.187500
vt 0.625000 0.250000
vt 0.375000 0.250000
vt 0.375000 0.437500
vt 0.625000 0.437500
vt 0.625000 0.500000
vt 0.375000 0.500000
vt 0.375000 0.687500
vt 0.625000 0.687500
vt 0.625000 0.750000
vt 0.375000 0.750000
vt 0.375000 0.937500
vt 0.625000 0.937500
vt 0.625000 1.000000
vt 0.375000 1.000000
vt 0.312500 0.687500
vt 0.312500 0.750000
vt 0.625000 0.625000
vt 0.625000 0.562500
vt 0.625000 0.562500
vt 0.625000 0.625000
vt 0.625000 0.187500
vt 0.625000 0.250000
vt 0.187500 0.687500
vt 0.250000 0.687500
vt 0.250000 0.750000
vt 0.187500 0.750000
vt 0.375000 0.812500
vt 0.625000 0.812500
vt 0.625000 0.875000
vt 0.375000 0.875000
vt 0.375000 0.312500
vt 0.625000 0.312500
vt 0.625000 0.375000
vt 0.375000 0.375000
vt 0.625000 0.125000
vt 0.625000 0.125000
vt 0.125000 0.687500
vt 0.125000 0.750000
vt 0.625000 0.750000
vt 0.625000 0.812500
vt 0.625000 0.687500
vt 0.125000 0.562500
vt 0.187500 0.562500
vt 0.187500 0.625000
vt 0.125000 0.625000
vt 0.250000 0.562500
vt 0.312500 0.562500
vt 0.312500 0.625000
vt 0.250000 0.625000
vt 0.625000 0.312500
vt 0.625000 0.875000
vt 0.625000 0.062500
vt 0.625000 0.062500
vt 0.375000 0.562500
vt 0.375000 0.625000
vt 0.375000 0.062500
vt 0.375000 0.125000
vt 0.375000 0.000000
vt 0.625000 0.000000
vt 0.625000 0.937500
vt 0.625000 0.375000
vt 0.625000 0.437500
vt 0.312500 0.500000
vt 0.625000 0.500000
vt 0.187500 0.500000
vt 0.250000 0.500000
vt 0.625000 0.000000
vt 0.125000 0.500000
vt 0.625000 1.000000
vt 0.625000 0.312500
vt 0.625000 0.375000
vt 0.625000 0.000000
vt 0.625000 0.062500
vt 0.625000 0.250000
vt 0.625000 0.937500
vt 0.625000 1.000000
vt 0.625000 0.875000
vt 0.625000 0.500000
vt 0.625000 0.562500
vt 0.625000 0.687500
vt 0.625000 0.750000
vt 0.625000 0.125000
vt 0.625000 0.187500
vt 0.625000 0.437500
vt 0.625000 0.812500
vt 0.625000 0.625000
vt 0.625000 0.125000
vt 0.625000 0.187500
vt 0.625000 0.437500
vt 0.625000 0.500000
vt 0.625000 0.750000
vt 0.625000 0.812500
vt 0.625000 0.250000
vt 0.625000 0.625000
vt 0.625000 0.687500
vt 0.625000 0.375000
vt 0.625000 0.562500
vt 0.625000 0.062500
vt 0.625000 0.875000
vt 0.625000 0.312500
vt 0.625000 0.000000
vt 0.625000 0.937500
vt 0.625000 1.000000
vt 0.812500 0.687500
vt 0.875000 0.687500
vt 0.875000 0.750000
vt 0.812500 0.750000
vt 0.687500 0.687500
vt 0.750000 0.687500
vt 0.750000 0.750000
vt 0.687500 0.750000
vt 0.750000 0.562500
vt 0.812500 0.562500
vt 0.812500 0.625000
vt 0.750000 0.625000
vt 0.687500 0.562500
vt 0.687500 0.625000
vt 0.875000 0.562500
vt 0.875000 0.625000
vt 0.812500 0.500000
vt 0.875000 0.500000
vt 0.687500 0.500000
vt 0.750000 0.500000
vn -0.7738 0.1820 -0.6068
vn 0.2672 -0.0744 -0.9608
vn 0.7232 -0.0810 0.6859
vn -0.4756 -0.1249 0.8708
vn 0.0000 -1.0000 0.0000
vn 0.9872 -0.0871 0.1337
vn -0.4587 0.0347 -0.8879
vn 0.4391 -0.0210 0.8982
vn 0.5402 0.0629 -0.8392
vn -0.6063 -0.0957 0.7895
vn -0.9817 -0.0560 0.1821
vn -0.6022 0.0032 -0.7984
vn -0.3232 0.1390 -0.9361
vn -0.2989 -0.9208 0.2505
vn -0.2286 0.0048 0.9735
vn -0.1008 -0.1081 0.9890
vn 0.5462 0.0750 0.8343
vn -0.0686 -0.9953 -0.0686
vn -0.9498 -0.1842 -0.2527
vn 0.1139 -0.0178 0.9933
vn -0.8711 0.1623 0.4634
vn 0.0581 -0.9957 -0.0727
vn 0.9776 0.0167 0.2098
vn -0.9237 -0.0225 0.3825
vn -0.9483 -0.1061 0.2992
vn 0.2145 0.0493 0.9755
vn -0.0811 -0.9934 0.0811
vn 0.4611 -0.1484 -0.8748
vn 0.9990 -0.0436 0.0021
vn -0.1299 0.0635 -0.9895
vn 0.0816 -0.9917 0.0996
vn 0.9978 0.0268 -0.0614
vn 0.9989 -0.0406 -0.0229
vn -0.0384 0.1382 -0.9897
vn 0.9994 0.0007 0.0356
vn -0.0379 -0.9987 -0.0338
vn -0.9446 0.1284 -0.3019
vn 0.0273 -0.9992 -0.0302
vn -0.6668 -0.1092 0.7372
vn -0.9882 0.0014 -0.1529
vn -0.4571 0.0829 -0.8855
vn -0.9739 -0.1965 -0.1135
vn -0.0769 -0.0035 -0.9970
vn -0.1608 0.1105 0.9808
vn 0.2015 0.0210 0.9793
vn 0.9923 0.0920 0.0835
vn 0.8276 0.0779 0.5558
vn -0.8399 0.1180 0.5298
vn -0.4575 -0.0155 -0.8891
vn 0.5856 0.0341 0.8099
vn -0.6310 -0.2038 -0.7486
vn 0.8739 0.0846 0.4787
vn 0.7393 -0.0063 -0.6734
vn 0.9761 0.0992 -0.1932
vn -0.9991 -0.0406 0.0084
vn -0.2870 -0.1075 0.9519
vn -0.9130 -0.0373 0.4063
vn -0.0392 0.0008 -0.9992
vn 0.3367 0.0490 0.9403
vn -0.9695 0.1086 -0.2198
vn 0.9269 0.0578 0.3708
vn 0.3499 0.0276 -0.9364
vn 0.9728 0.0132 -0.2314
vn -0.9733 -0.0442 -0.2252
vn 0.1495 0.0995 0.9837
vn -0.5359 0.0201 -0.8440
vn -0.9610 0.1284 0.2450
vn 0.4283 -0.0301 -0.9031
vn 0.0522 0.0662 0.9964
vn -0.3823 0.0774 0.9208
vn 0.9939 -0.0036 0.1106
vn 0.9701 -0.0296 0.2408
vn 0.0000 1.0000 0.0000
usemtl None
s off
f 37/1/1 35/2/1 4/3/1 3/4/1
f 15/5/2 13/6/2 8/7/2 7/8/2
f 34/9/3 29/10/3 6/11/3 5/12/3
f 20/13/4 18/14/4 2/15/4 1/16/4
f 31/17/5 34/9/5 5/12/5 14/18/5
f 24/19/6 38/20/6 57/21/6 53/22/6
f 4/3/7 35/2/7 56/23/7 43/24/7
f 32/25/5 30/26/5 11/27/5 20/28/5
f 14/29/8 16/30/8 12/31/8 11/32/8
f 17/33/9 19/34/9 10/35/9 9/36/9
f 5/12/10 6/11/10 16/30/10 14/29/10
f 35/2/11 22/37/11 52/38/11 56/23/11
f 30/26/5 31/17/5 14/18/5 11/27/5
f 9/36/12 10/35/12 13/6/12 15/5/12
f 3/4/13 4/3/13 19/34/13 17/33/13
f 28/39/14 32/25/14 20/28/14 1/40/14
f 16/30/15 6/11/15 44/41/15 49/42/15
f 11/32/16 12/31/16 18/14/16 20/13/16
f 6/11/17 29/10/17 54/43/17 44/41/17
f 37/44/5 41/45/5 27/46/5 21/47/5
f 39/48/18 40/49/18 26/50/18 25/51/18
f 19/34/19 4/3/19 43/24/19 51/52/19
f 41/45/5 39/48/5 25/51/5 27/46/5
f 12/31/20 16/30/20 49/42/20 47/53/20
f 22/37/21 33/54/21 55/55/21 52/38/21
f 40/49/22 36/56/22 23/57/22 26/50/22
f 36/56/23 38/20/23 24/19/23 23/57/23
f 28/58/24 33/54/24 22/37/24 21/59/24
f 1/60/25 2/61/25 33/54/25 28/58/25
f 18/14/26 12/31/26 47/53/26 50/62/26
f 21/47/5 27/46/5 32/25/5 28/39/5
f 25/51/27 26/50/27 31/17/27 30/26/27
f 10/35/28 19/34/28 51/52/28 46/63/28
f 27/46/5 25/51/5 30/26/5 32/25/5
f 29/10/29 24/19/29 53/22/29 54/43/29
f 13/6/30 10/35/30 46/63/30 48/64/30
f 26/50/31 23/57/31 34/9/31 31/17/31
f 23/57/32 24/19/32 29/10/32 34/9/32
f 7/8/33 8/7/33 38/20/33 36/56/33
f 15/65/5 7/8/5 36/56/5 40/49/5
f 8/7/34 13/6/34 48/64/34 45/66/34
f 38/20/35 8/7/35 45/66/35 57/21/35
f 17/67/36 9/68/36 39/48/36 41/45/36
f 33/54/37 2/61/37 42/69/37 55/55/37
f 9/68/5 15/65/5 40/49/5 39/48/5
f 3/70/38 17/67/38 41/45/38 37/44/38
f 2/15/39 18/14/39 50/62/39 42/71/39
f 21/59/40 22/37/40 35/2/40 37/1/40
f 46/63/41 51/52/41 67/72/41 62/73/41
f 55/55/42 42/69/42 58/74/42 71/75/42
f 51/52/43 43/24/43 59/76/43 67/72/43
f 42/71/44 50/62/44 66/77/44 58/78/44
f 50/62/45 47/53/45 63/79/45 66/77/45
f 57/21/46 45/66/46 61/80/46 73/81/46
f 44/41/47 54/43/47 70/82/47 60/83/47
f 56/23/48 52/38/48 68/84/48 72/85/48
f 45/66/49 48/64/49 64/86/49 61/80/49
f 49/42/50 44/41/50 60/83/50 65/87/50
f 43/24/51 56/23/51 72/85/51 59/76/51
f 54/43/52 53/22/52 69/88/52 70/82/52
f 48/64/53 46/63/53 62/73/53 64/86/53
f 53/22/54 57/21/54 73/81/54 69/88/54
f 52/38/55 55/55/55 71/75/55 68/84/55
f 47/53/56 49/42/56 65/87/56 63/79/56
f 72/85/57 68/84/57 84/89/57 94/90/57
f 61/80/58 64/86/58 80/91/58 77/92/58
f 65/87/59 60/83/59 76/93/59 81/94/59
f 59/76/60 72/85/60 94/90/60 75/95/60
f 70/82/61 69/88/61 85/96/61 89/97/61
f 64/86/62 62/73/62 78/98/62 80/91/62
f 69/88/63 73/81/63 95/99/63 85/96/63
f 68/84/64 71/75/64 93/100/64 84/89/64
f 63/79/65 65/87/65 81/94/65 79/101/65
f 62/73/66 67/72/66 83/102/66 78/98/66
f 71/75/67 58/74/67 74/103/67 93/100/67
f 67/72/68 59/76/68 75/95/68 83/102/68
f 58/78/69 66/77/69 82/104/69 74/105/69
f 66/77/70 63/79/70 79/101/70 82/104/70
f 73/81/71 61/80/71 77/92/71 95/99/71
f 60/83/72 70/82/72 89/97/72 76/93/72
f 92/106/73 93/107/73 74/108/73 82/109/73
f 91/110/73 90/111/73 79/112/73 81/113/73
f 89/97/73 91/110/73 81/113/73 76/93/73
f 90/111/73 92/106/73 82/109/73 79/112/73
f 96/114/73 98/115/73 88/116/73 86/117/73
f 95/99/73 97/118/73 87/119/73 85/96/73
f 97/118/73 96/114/73 86/117/73 87/119/73
f 98/115/73 94/120/73 84/121/73 88/116/73
f 86/117/73 88/116/73 92/106/73 90/111/73
f 85/96/73 87/119/73 91/110/73 89/97/73
f 87/119/73 86/117/73 90/111/73 91/110/73
f 88/116/73 84/121/73 93/107/73 92/106/73
f 83/122/73 75/123/73 94/120/73 98/115/73
f 80/124/73 78/125/73 96/114/73 97/118/73
f 77/92/73 80/124/73 97/118/73 95/99/73
f 78/125/73 83/122/73 98/115/73 96/114/73
